<?xml version="1.0" encoding="UTF-8"?>
<svg width="12px" height="12px" viewBox="0 0 12 12" version="1.1" xmlns="http://www.w3.org/2000/svg" xmlns:xlink="http://www.w3.org/1999/xlink">
    <!-- Generator: sketchtool 51.3 (57544) - http://www.bohemiancoding.com/sketch -->
    <title>F728E5EE-B6A9-44CF-BF25-BE9977A7F494</title>
    <desc>Created with sketchtool.</desc>
    <defs></defs>
    <g id="Page-1" stroke="none" stroke-width="1" fill="none" fill-rule="evenodd">
        <g id="Options-1024px" transform="translate(-910.000000, -73.000000)" fill="#28294B" fill-rule="nonzero">
            <g id="Group-5" transform="translate(910.000000, 65.000000)">
                <g id="about-icon" transform="translate(0.000000, 8.000000)">
                    <path d="M6,3 C5.586,3 5.25,3.336 5.25,3.75 C5.25,4.164 5.586,4.5 6,4.5 C6.414,4.5 6.75,4.16437255 6.75,3.75 C6.75,3.33562745 6.41437255,3 6,3 Z M6,5.25 C5.586,5.25 5.25,5.58562745 5.25,6 L5.25,8.25 C5.25,8.664 5.586,9 6,9 C6.414,9 6.75,8.664 6.75,8.25 L6.75,6 C6.75,5.586 6.41437255,5.25 6,5.25 Z M6,0 C2.6917451,0 0,2.6917451 0,6 C0,9.3082549 2.6917451,12 6,12 C9.3082549,12 12,9.3082549 12,6 C12,2.6917451 9.3082549,0 6,0 Z M6,10.875 C3.31162745,10.875 1.125,8.688 1.125,6 C1.125,3.312 3.31162745,1.125 6,1.125 C8.688,1.125 10.875,3.312 10.875,6 C10.875,8.688 8.688,10.875 6,10.875 Z" id="Shape"></path>
                </g>
            </g>
        </g>
    </g>
</svg>