<?xml version="1.0" encoding="UTF-8"?>
<svg width="10px" height="13px" viewBox="0 0 10 13" version="1.1" xmlns="http://www.w3.org/2000/svg" xmlns:xlink="http://www.w3.org/1999/xlink">
    <!-- Generator: Sketch 51.1 (57501) - http://www.bohemiancoding.com/sketch -->
    <title>delete-icon</title>
    <desc>Created with Sketch.</desc>
    <defs></defs>
    <g id="Page-1" stroke="none" stroke-width="1" fill="none" fill-rule="evenodd">
        <g id="Team-Notes-opened-1024px" transform="translate(-937.000000, -172.000000)" fill="#FFFFFF">
            <g id="all" transform="translate(98.000000, 76.000000)">
                <g id="OPTIONS" transform="translate(828.000000, 51.000000)">
                    <g id="delete-icon" transform="translate(11.000000, 45.000000)">
                        <g id="delete-photo">
                            <path d="M0.890410959,12.7120883 C0.890410959,12.8711019 1.0185175,13 1.17655467,13 L8.43988368,13 C8.59792086,13 8.7260274,12.8711019 8.7260274,12.7120883 L8.7260274,3.38356164 L0.890410959,3.38356164 L0.890410959,12.7120883 Z M6.41777758,4.97109243 L7.49081651,4.97109243 L7.49081651,11.2479852 L6.41777758,11.2479852 L6.41777758,4.97109243 Z M4.27169971,4.97109243 L5.34473864,4.97109243 L5.34473864,11.2479852 L4.27169971,11.2479852 L4.27169971,4.97109243 Z M2.12562184,4.97109243 L3.19866078,4.97109243 L3.19866078,11.2479852 L2.12562184,11.2479852 L2.12562184,4.97109243 Z" id="Shape" fill-rule="nonzero"></path>
                            <path d="M7.14181386,1.34105322 L7.14181386,0.291815609 C7.14181386,0.130645848 7.01313356,0 6.85438858,0 L2.58396758,0 C2.4252226,0 2.29654231,0.130645848 2.29654231,0.291815609 L2.29654231,1.34105322 L2.29654231,1.52343798 L2.29654231,1.70582273 L0.287425274,1.70582273 C0.128680295,1.70582273 0,1.83646858 0,1.99763834 L0,2.73558165 C0,2.89673682 0.128680295,3.02739726 0.287425274,3.02739726 L0.783823092,3.02739726 L8.65453307,3.02739726 L9.15093089,3.02739726 C9.30967587,3.02739726 9.43835616,2.89673682 9.43835616,2.73558165 L9.43835616,1.99763834 C9.43835616,1.83646858 9.30967587,1.70582273 9.15093089,1.70582273 L7.14181386,1.70582273 L7.14181386,1.52343798 L7.14181386,1.34105322 Z M6.06396908,1.64582544 L3.37438708,1.64582544 L3.37438708,1.52342339 L3.37438708,1.34103863 L3.37438708,1.09430853 L6.06396908,1.09430853 L6.06396908,1.34105322 L6.06396908,1.52343798 L6.06396908,1.64582544 Z" id="Shape" fill-rule="nonzero"></path>
                        </g>
                    </g>
                </g>
            </g>
        </g>
    </g>
</svg>