<?xml version="1.0" encoding="UTF-8"?>
<svg width="12px" height="12px" viewBox="0 0 12 12" version="1.1" xmlns="http://www.w3.org/2000/svg" xmlns:xlink="http://www.w3.org/1999/xlink">
    <!-- Generator: sketchtool 51.3 (57544) - http://www.bohemiancoding.com/sketch -->
    <title>C2325730-A453-424D-B3AC-C0DAAEC7383A</title>
    <desc>Created with sketchtool.</desc>
    <defs></defs>
    <g id="Page-1" stroke="none" stroke-width="1" fill="none" fill-rule="evenodd">
        <g id="Options-1024px" transform="translate(-910.000000, -101.000000)" fill="#28294B" fill-rule="nonzero">
            <g id="Group-5" transform="translate(910.000000, 65.000000)">
                <g id="settings-icon" transform="translate(0.000000, 36.000000)">
                    <path d="M0.853270913,7.29350614 L1.41176954,7.55064801 C1.6444773,7.65974767 1.75308338,7.92467256 1.66774807,8.16622091 L1.45056329,8.74285125 C1.28766786,9.1870054 1.34195721,9.66231909 1.61345872,10.0441541 C1.87718506,10.4337722 2.311582,10.659727 2.77699752,10.659727 C2.94764075,10.659727 3.11831136,10.6285675 3.2812068,10.5662209 L3.8552284,10.3480491 C3.90951775,10.3246726 3.96383448,10.3168895 4.02587163,10.3168895 C4.21203784,10.3168895 4.39045624,10.4259892 4.46801637,10.605191 L4.72399491,11.1662278 C4.95670267,11.6805115 5.45313676,12 6.01163539,12 C6.57013401,12 7.06656811,11.6805115 7.29927587,11.1662278 L7.5552544,10.605191 C7.63281453,10.4337722 7.80348514,10.3168895 7.99739915,10.3168895 C8.0516885,10.3168895 8.11375303,10.3246726 8.16804238,10.3480491 L8.74206398,10.5740314 C8.90495941,10.636378 9.07560264,10.6753206 9.24627325,10.6753206 C9.70394097,10.6753206 10.1383105,10.4337722 10.4098121,10.0519372 C10.6735384,9.66231909 10.7356029,9.1870054 10.5727075,8.74285125 L10.3555227,8.16622091 C10.2701874,7.92467256 10.3787935,7.65972017 10.6115012,7.55064801 L11.1699999,7.29350614 C11.6819569,7.0597408 12,6.56105057 12,6.00001375 C12,5.43897693 11.6819296,4.9402592 11.1699725,4.70649386 L10.6114739,4.44935199 C10.3787661,4.34025233 10.27016,4.07532744 10.3554953,3.83377909 L10.5726801,3.25714875 C10.7355755,2.8129946 10.6812862,2.33768091 10.4097847,1.95584585 C10.1460583,1.56622778 9.7116614,1.34027296 9.24624588,1.34027296 C9.07560264,1.34027296 8.90493204,1.3714325 8.7420366,1.43377909 L8.168015,1.65195091 C8.11372565,1.67532744 8.05940892,1.68311045 7.99737177,1.68311045 C7.81120556,1.68311045 7.63278715,1.57401079 7.55522703,1.39480903 L7.29924849,0.833772216 C7.06654073,0.319488466 6.57010663,0 6.01160801,0 C5.45310939,0 4.93340451,0.327271477 4.70069675,0.841555227 L4.44471822,1.40259205 C4.36715809,1.57401079 4.19648748,1.69089346 4.00257347,1.69089346 C3.94828412,1.69089346 3.88621959,1.68311045 3.83193024,1.65973392 L3.25790864,1.4415621 C3.09501321,1.37921551 2.92436998,1.34805597 2.75369937,1.34805597 C2.29603165,1.34805597 1.86166208,1.58182131 1.59016057,1.96362886 C1.32643423,2.35324693 1.2643697,2.82856062 1.42726514,3.26493176 L1.64444992,3.8415621 C1.72978522,4.08311045 1.62117914,4.34806284 1.38847138,4.457135 L0.82997276,4.71427687 C0.318043065,4.94804222 0,5.44675994 0,6.00779676 C0,6.56883358 0.341313841,7.0597408 0.853270913,7.29350614 Z M1.23335113,5.5558321 L1.79184975,5.29869023 C2.46670226,4.98701227 2.79249312,4.19999312 2.52876679,3.50648011 L2.311582,2.92984977 C2.23402187,2.71946096 2.311582,2.56360824 2.36587135,2.48569562 C2.48997303,2.29868335 2.72268079,2.22077074 2.93989295,2.30646636 L3.51391456,2.52463818 C3.67680999,2.58698477 3.83970542,2.61814432 4.01034865,2.61814432 C4.56109948,2.61814432 5.06528137,2.29087284 5.29798913,1.7843721 L5.55396767,1.22333528 C5.67032155,0.958410396 5.91855228,0.935033862 5.99611241,0.935033862 C6.07367254,0.935033862 6.31415548,0.958410396 6.43825716,1.22333528 L6.69423569,1.7843721 C6.92694345,2.29087284 7.43115272,2.61814432 7.98187617,2.61814432 C8.1525194,2.61814432 8.31541484,2.58698477 8.47831027,2.52463818 L9.05233187,2.30646636 C9.26951665,2.22855375 9.49447661,2.30646636 9.62635347,2.48569562 C9.68064282,2.56360824 9.75823033,2.71946096 9.68064282,2.92984977 L9.46345804,3.50648011 C9.2074795,4.19999312 9.52552257,4.98698477 10.2003751,5.29869023 L10.7588737,5.5558321 C11.0226,5.67271477 11.0458708,5.92207364 11.0458708,5.99998625 C11.0458708,6.07789886 11.0226,6.31947472 10.7588737,6.4441404 L10.2003751,6.70128227 C9.52552257,7.01296023 9.1997317,7.79997937 9.46345804,8.49349239 L9.68064282,9.07012273 C9.75820295,9.28051153 9.68064282,9.43636426 9.62635347,9.51427687 C9.50225179,9.70128915 9.26954403,9.77920176 9.05233187,9.69350614 L8.47831027,9.47533432 C8.31541484,9.41298773 8.1525194,9.38182818 7.98187617,9.38182818 C7.43112535,9.38182818 6.92694345,9.70909966 6.69423569,10.2156004 L6.43825716,10.7766372 C6.32190328,11.0415621 6.07367254,11.0649386 5.99611241,11.0649386 C5.91855228,11.0649386 5.67806935,11.0415621 5.55396767,10.7766372 L5.29798913,10.2156004 C5.06528137,9.70909966 4.5610721,9.38182818 4.01034865,9.38182818 C3.83970542,9.38182818 3.67680999,9.41298773 3.51391456,9.47533432 L2.93989295,9.69350614 C2.72270817,9.77141875 2.49774821,9.69350614 2.36587135,9.51427687 C2.311582,9.43636426 2.2339945,9.28051153 2.311582,9.07012273 L2.52876679,8.49349239 C2.78474532,7.79997937 2.46670226,7.01298773 1.79184975,6.70128227 L1.23335113,6.4441404 C0.969624793,6.32725773 0.946354017,6.07789886 0.946354017,5.99998625 C0.946354017,5.92207364 0.969624793,5.68052528 1.23335113,5.5558321 Z" id="Shape"></path>
                    <path d="M6,8.04878049 C7.12683344,8.04878049 8.04878049,7.12683344 8.04878049,6 C8.04878049,4.87316656 7.12683344,3.95121951 6,3.95121951 C4.87316656,3.95121951 3.95121951,4.87316656 3.95121951,6 C3.95121951,7.12683344 4.86529594,8.04878049 6,8.04878049 Z M6,4.89683404 C6.60676075,4.89683404 7.10319377,5.39326707 7.10319377,6.00002781 C7.10319377,6.60678856 6.60676075,7.10322158 6,7.10322158 C5.39323925,7.10322158 4.89680623,6.60678856 4.89680623,6.00002781 C4.89680623,5.39326707 5.39326707,4.89683404 6,4.89683404 Z" id="Shape"></path>
                </g>
            </g>
        </g>
    </g>
</svg>