<?xml version="1.0" encoding="UTF-8"?>
<svg width="961px" height="643px" viewBox="0 0 961 643" version="1.1" xmlns="http://www.w3.org/2000/svg" xmlns:xlink="http://www.w3.org/1999/xlink">
    <!-- Generator: Sketch 52.5 (67469) - http://www.bohemiancoding.com/sketch -->
    <title>bg-shape</title>
    <desc>Created with Sketch.</desc>
    <defs>
        <linearGradient x1="-1.11022302e-14%" y1="50%" x2="100%" y2="50%" id="linearGradient-1">
            <stop stop-color="#7277BB" offset="0%"></stop>
            <stop stop-color="#D4D4E8" offset="100%"></stop>
        </linearGradient>
        <linearGradient x1="50%" y1="0%" x2="50%" y2="100%" id="linearGradient-2">
            <stop stop-color="#C7C9E1" offset="0%"></stop>
            <stop stop-color="#D4D4E8" offset="100%"></stop>
        </linearGradient>
    </defs>
    <g id="Page-1" stroke="none" stroke-width="1" fill="none" fill-rule="evenodd" fill-opacity="0.2">
        <g id="Subscribe" transform="translate(-224.000000, -239.000000)" fill-rule="nonzero">
            <g id="Group-4" transform="translate(168.000000, 140.000000)">
                <g id="bg-shape" transform="translate(530.905919, 389.010940) rotate(-8.000000) translate(-530.905919, -389.010940) translate(40.905919, 66.010940)">
                    <path d="M106.155048,43.8044283 C140.93427,15.920019 248.561274,-13.5758502 308.469296,7.32431679 C368.377318,28.2244838 524.952124,118.229087 616.019893,140.823519 C707.087662,163.417952 954.230411,288.521522 956.591683,337.750963 C958.952954,386.980403 905.889623,522.445174 860.371995,554.961462 C814.854367,587.477749 712.243912,601.443366 670.225905,612.694387 C628.207897,623.945408 208.296057,630.018143 98.6100927,571.314462 C25.4861168,532.178675 -6.71691543,484.695951 2.00099616,428.866289 C71.3529488,172.555654 71.3758252,71.6888376 106.155048,43.8044283 Z" id="Path-8" fill="url(#linearGradient-1)"></path>
                    <path d="M55.565097,131.160438 C64.2875003,79.8752583 176.754622,41.7551879 241.155364,49.0256912 C305.556106,56.2961946 484.871415,109.473937 579.916065,111.661979 C674.960714,113.850021 952.724766,181.402389 970.310639,228.446599 C987.896513,275.490808 978.719505,417.785709 944.832883,459.010012 C910.946261,500.234315 816.110274,535.850574 778.995604,555.778977 C741.880933,575.707381 337.90603,672.119865 213.641078,639.066631 C130.797776,617.031142 84.9115585,578.109024 75.9824246,522.300276 C63.3365907,259.761477 46.8426936,182.445618 55.565097,131.160438 Z" id="Path-8" fill="url(#linearGradient-2)"></path>
                    <path d="M49.8087783,81.5544753 C77.9198435,21.3240326 178.109124,4.61308869 241.47193,16.5028143 C304.834737,28.3925398 477.814314,94.233753 572.220858,103.29038 C666.627401,112.347007 936.127931,199.604588 948.716067,247.639079 C961.304202,295.673571 937.279013,436.447922 899.22516,474.970633 C861.171308,513.493343 763.017232,542.028685 723.977324,559.14989 C684.937416,576.271094 272.61447,642.853558 152.342711,601.001724 C72.1615378,573.100501 30.5451169,531.090137 27.4934477,474.970633 C23.6296246,252.846823 31.0680681,121.708104 49.8087783,81.5544753 Z" id="Path-8" fill="url(#linearGradient-2)"></path>
                </g>
            </g>
        </g>
    </g>
</svg>