<?xml version="1.0" encoding="UTF-8"?>
<svg width="778px" height="622px" viewBox="0 0 778 622" version="1.1" xmlns="http://www.w3.org/2000/svg" xmlns:xlink="http://www.w3.org/1999/xlink">
    <!-- Generator: Sketch 52.5 (67469) - http://www.bohemiancoding.com/sketch -->
    <title>left-ui</title>
    <desc>Created with Sketch.</desc>
    <defs>
        <linearGradient x1="-1.11022302e-14%" y1="50%" x2="100%" y2="50%" id="linearGradient-1">
            <stop stop-color="#7277BB" offset="0%"></stop>
            <stop stop-color="#D4D4E8" offset="100%"></stop>
        </linearGradient>
        <linearGradient x1="50%" y1="0%" x2="50%" y2="100%" id="linearGradient-2">
            <stop stop-color="#C7C9E1" offset="0%"></stop>
            <stop stop-color="#D4D4E8" offset="100%"></stop>
        </linearGradient>
        <linearGradient x1="7.91808757%" y1="50%" x2="96.6726075%" y2="50%" id="linearGradient-3">
            <stop stop-color="#62B2FF" offset="0%"></stop>
            <stop stop-color="#6E7BFF" offset="100%"></stop>
        </linearGradient>
        <path d="M6.92307692,0.527569111 L555.576923,0.527569111 C559.400433,0.527569111 562.5,3.62713623 562.5,7.45064603 L562.5,455.25 L0,455.25 L-8.8817842e-16,7.45064603 C-1.35642332e-15,3.62713623 3.09956712,0.527569111 6.92307692,0.527569111 Z" id="path-4"></path>
        <filter x="-4.8%" y="-4.0%" width="109.6%" height="111.9%" filterUnits="objectBoundingBox" id="filter-5">
            <feOffset dx="0" dy="9" in="SourceAlpha" result="shadowOffsetOuter1"></feOffset>
            <feGaussianBlur stdDeviation="7.5" in="shadowOffsetOuter1" result="shadowBlurOuter1"></feGaussianBlur>
            <feColorMatrix values="0 0 0 0 0.729411765   0 0 0 0 0.752941176   0 0 0 0 0.811764706  0 0 0 0.352977808 0" type="matrix" in="shadowBlurOuter1"></feColorMatrix>
        </filter>
        <linearGradient x1="50%" y1="-2.48949813e-15%" x2="50%" y2="96.6446893%" id="linearGradient-6">
            <stop stop-color="#FFFFFF" offset="0%"></stop>
            <stop stop-color="#FBFBFB" offset="100%"></stop>
        </linearGradient>
        <path d="M56.5795898,41.7480469 L505.92041,41.7480469 C507.437306,41.7480469 508.666992,42.9777335 508.666992,44.4946289 L508.666992,439.453125 L53.8330078,439.453125 L53.8330078,44.4946289 C53.8330078,42.9777335 55.0626945,41.7480469 56.5795898,41.7480469 Z" id="path-7"></path>
        <filter x="-3.2%" y="-3.1%" width="106.4%" height="107.3%" filterUnits="objectBoundingBox" id="filter-8">
            <feOffset dx="0" dy="2" in="SourceAlpha" result="shadowOffsetOuter1"></feOffset>
            <feGaussianBlur stdDeviation="4.5" in="shadowOffsetOuter1" result="shadowBlurOuter1"></feGaussianBlur>
            <feColorMatrix values="0 0 0 0 0.419607843   0 0 0 0 0.639215686   0 0 0 0 0.996078431  0 0 0 0.141983696 0" type="matrix" in="shadowBlurOuter1"></feColorMatrix>
        </filter>
        <circle id="path-9" cx="513.336182" cy="14.0075684" r="6.86645508"></circle>
        <filter x="-29.1%" y="-14.6%" width="158.3%" height="158.3%" filterUnits="objectBoundingBox" id="filter-10">
            <feOffset dx="0" dy="2" in="SourceAlpha" result="shadowOffsetOuter1"></feOffset>
            <feGaussianBlur stdDeviation="1" in="shadowOffsetOuter1" result="shadowBlurOuter1"></feGaussianBlur>
            <feColorMatrix values="0 0 0 0 0.721193016   0 0 0 0 0.912749648   0 0 0 0 0.527202904  0 0 0 1 0" type="matrix" in="shadowBlurOuter1"></feColorMatrix>
        </filter>
        <rect id="path-11" x="247.192383" y="7.14111328" width="46.6918945" height="13.7329102" rx="2.74658203"></rect>
        <filter x="-18.2%" y="-47.3%" width="136.4%" height="223.8%" filterUnits="objectBoundingBox" id="filter-12">
            <feOffset dx="0" dy="2" in="SourceAlpha" result="shadowOffsetOuter1"></feOffset>
            <feGaussianBlur stdDeviation="2.5" in="shadowOffsetOuter1" result="shadowBlurOuter1"></feGaussianBlur>
            <feColorMatrix values="0 0 0 0 0.474509804   0 0 0 0 0.521568627   0 0 0 0 1  0 0 0 0.5 0" type="matrix" in="shadowBlurOuter1"></feColorMatrix>
        </filter>
        <linearGradient x1="4.86244777%" y1="50%" x2="93.237604%" y2="50%" id="linearGradient-13">
            <stop stop-color="#6CB7FF" offset="0%"></stop>
            <stop stop-color="#7985FF" offset="100%"></stop>
        </linearGradient>
        <path d="M6.92307692,-2.27373675e-13 L555.576923,-2.28261854e-13 C559.400433,-2.28964221e-13 562.5,3.09956712 562.5,6.92307692 L562.5,454.722431 L0,454.722431 L-8.8817842e-16,6.92307692 C-1.35642332e-15,3.09956712 3.09956712,-2.4265852e-13 6.92307692,-2.43360887e-13 Z" id="path-14"></path>
        <filter x="-4.8%" y="-4.0%" width="109.6%" height="111.9%" filterUnits="objectBoundingBox" id="filter-15">
            <feOffset dx="0" dy="9" in="SourceAlpha" result="shadowOffsetOuter1"></feOffset>
            <feGaussianBlur stdDeviation="7.5" in="shadowOffsetOuter1" result="shadowBlurOuter1"></feGaussianBlur>
            <feColorMatrix values="0 0 0 0 0.729411765   0 0 0 0 0.752941176   0 0 0 0 0.811764706  0 0 0 0.352977808 0" type="matrix" in="shadowBlurOuter1"></feColorMatrix>
        </filter>
        <path d="M56.5795898,41.7480469 L505.92041,41.7480469 C507.437306,41.7480469 508.666992,42.9777335 508.666992,44.4946289 L508.666992,439.453125 L53.8330078,439.453125 L53.8330078,44.4946289 C53.8330078,42.9777335 55.0626945,41.7480469 56.5795898,41.7480469 Z" id="path-16"></path>
        <filter x="-3.4%" y="-2.9%" width="106.8%" height="107.8%" filterUnits="objectBoundingBox" id="filter-17">
            <feOffset dx="0" dy="4" in="SourceAlpha" result="shadowOffsetOuter1"></feOffset>
            <feGaussianBlur stdDeviation="4.5" in="shadowOffsetOuter1" result="shadowBlurOuter1"></feGaussianBlur>
            <feColorMatrix values="0 0 0 0 0.419607843   0 0 0 0 0.639215686   0 0 0 0 0.996078431  0 0 0 0.141983696 0" type="matrix" in="shadowBlurOuter1"></feColorMatrix>
        </filter>
        <linearGradient x1="50%" y1="100%" x2="50%" y2="0.26274588%" id="linearGradient-18">
            <stop stop-color="#FFFFFF" stop-opacity="0" offset="0%"></stop>
            <stop stop-color="#FFFFFF" offset="100%"></stop>
        </linearGradient>
        <circle id="path-19" cx="513.336182" cy="14.0075684" r="6.86645508"></circle>
        <filter x="-40.0%" y="-25.5%" width="180.1%" height="180.1%" filterUnits="objectBoundingBox" id="filter-20">
            <feOffset dx="0" dy="2" in="SourceAlpha" result="shadowOffsetOuter1"></feOffset>
            <feGaussianBlur stdDeviation="1.5" in="shadowOffsetOuter1" result="shadowBlurOuter1"></feGaussianBlur>
            <feColorMatrix values="0 0 0 0 0.721193016   0 0 0 0 0.912749648   0 0 0 0 0.527202904  0 0 0 1 0" type="matrix" in="shadowBlurOuter1"></feColorMatrix>
        </filter>
        <rect id="path-21" x="2.74658203" y="0" width="46.6918945" height="13.7329102" rx="2.74658203"></rect>
        <filter x="-19.3%" y="-43.7%" width="138.6%" height="231.1%" filterUnits="objectBoundingBox" id="filter-22">
            <feOffset dx="0" dy="3" in="SourceAlpha" result="shadowOffsetOuter1"></feOffset>
            <feGaussianBlur stdDeviation="2.5" in="shadowOffsetOuter1" result="shadowBlurOuter1"></feGaussianBlur>
            <feColorMatrix values="0 0 0 0 0.474509804   0 0 0 0 0.521568627   0 0 0 0 1  0 0 0 0.5 0" type="matrix" in="shadowBlurOuter1"></feColorMatrix>
        </filter>
    </defs>
    <g id="Page-1" stroke="none" stroke-width="1" fill="none" fill-rule="evenodd">
        <g id="Landing-Page-1920px" transform="translate(-181.000000, -1455.000000)">
            <g id="p1" transform="translate(181.000000, 1455.000000)">
                <g id="left-ui">
                    <g id="bubble" fill-rule="nonzero">
                        <path d="M84.2713905,39.6261567 C84.3715438,39.0581588 197.355463,-15.0666816 244.928124,4.8546134 C292.500785,24.7759084 416.836055,110.565091 489.152515,132.1013 C561.468976,153.637508 757.723797,272.881777 759.598871,319.805527 C761.473945,366.729276 719.336619,495.849473 683.191298,526.84284 C647.045978,557.836207 565.563528,571.147736 532.197238,581.871809 C498.830949,592.595882 165.381055,598.384196 78.2799794,542.429938 C20.2125955,505.127099 -5.35967136,459.868257 1.56317866,406.653412 C56.6352176,162.34724 84.2046216,40.004822 84.2713905,39.6261567 Z" id="Path-8" fill-opacity="0.2" fill="url(#linearGradient-1)"></path>
                        <path d="M46.0964046,118.789821 C46.0461366,118.215256 141.171683,36.6922843 192.279355,43.622067 C243.387027,50.5518496 385.68955,101.237501 461.115868,103.323004 C536.542185,105.408507 756.972474,169.79514 770.928416,214.634697 C784.884359,259.474254 777.601593,395.100729 750.709568,434.39312 C723.817543,473.685511 648.556818,507.63267 619.103051,526.62716 C589.649285,545.621651 269.059547,637.515916 170.44434,606.01167 C104.700869,585.008839 68.2861062,547.910745 61.2000504,494.717386 C51.1644651,244.482053 46.1299165,119.172865 46.0964046,118.789821 Z" id="Path-8" fill-opacity="0.2" fill="url(#linearGradient-2)"></path>
                        <path d="M40.6443947,75.6626125 C80.8613027,4.51788378 142.520007,2.17677277 192.832612,13.5325139 C243.145218,24.888255 380.497929,87.7724458 455.460505,96.4223268 C530.423081,105.072208 744.417294,188.410927 754.412777,234.288121 C764.408261,280.165316 745.331298,414.61729 715.115016,451.409892 C684.898734,488.202493 606.960466,515.456272 575.961216,531.808539 C544.961966,548.160806 217.561036,611.752956 122.060443,571.780748 C58.3933809,545.132608 25.3482762,505.00899 22.9251287,451.409892 C7.92670078,248.341525 13.8331228,123.092432 40.6443947,75.6626125 Z" id="Path-8" fill="url(#linearGradient-3)"></path>
                    </g>
                    <g id="scrumbs-notes-closed-ui" transform="translate(33.000000, 44.526365)">
                        <g id="Rectangle">
                            <use fill="black" fill-opacity="1" filter="url(#filter-5)" xlink:href="#path-4"></use>
                            <use fill="#EAEBF1" fill-rule="evenodd" xlink:href="#path-4"></use>
                        </g>
                        <g id="Group-9" transform="translate(0.000000, 15.000000)">
                            <polygon id="main-bg" fill="#F3F2FC" points="5.68434189e-14 0 562.5 0 562.5 440.002441 5.68434189e-14 440.002441"></polygon>
                            <g id="list-bg">
                                <use fill="black" fill-opacity="1" filter="url(#filter-8)" xlink:href="#path-7"></use>
                                <use fill="url(#linearGradient-6)" fill-rule="evenodd" xlink:href="#path-7"></use>
                            </g>
                            <text id="Della-Murphy" opacity="0.8" font-family="Lato-Bold, Lato" font-size="8.7890625" font-weight="bold" fill="#242246">
                                <tspan x="64.8193359" y="143.033203">Della Murphy</tspan>
                            </text>
                            <path d="M496.228093,139.798307 L493.926124,142.160207 C493.779691,142.31053 493.542275,142.31053 493.395913,142.160207 C493.249539,142.010018 493.249539,141.766425 493.395913,141.616248 L495.4328,139.526328 L493.395972,137.43648 C493.249599,137.28623 493.249599,137.042662 493.395972,136.892473 C493.542346,136.742223 493.77975,136.742223 493.926183,136.892473 L496.228152,139.254409 C496.301339,139.32954 496.337891,139.427904 496.337891,139.526316 C496.337891,139.624776 496.301268,139.723212 496.228093,139.798307 Z" id="arrow-4" fill="#9679FF" fill-rule="nonzero" transform="translate(494.812012, 139.526367) rotate(-270.000000) translate(-494.812012, -139.526367) "></path>
                            <path d="M62.0727539,153.259277 L500.427246,153.259277" id="divider4" stroke="#B2B0C4" stroke-width="0.549316406" opacity="0.441745924"></path>
                            <text id="Nell-McKinney" opacity="0.8" font-family="Lato-Bold, Lato" font-size="8.7890625" font-weight="bold" fill="#242246">
                                <tspan x="64.8193359" y="115.018066">Nell McKinney</tspan>
                            </text>
                            <path d="M496.228093,111.78317 L493.926124,114.14507 C493.779691,114.295393 493.542275,114.295393 493.395913,114.14507 C493.249539,113.994881 493.249539,113.751289 493.395913,113.601112 L495.4328,111.511191 L493.395972,109.421343 C493.249599,109.271093 493.249599,109.027525 493.395972,108.877336 C493.542346,108.727086 493.77975,108.727086 493.926183,108.877336 L496.228152,111.239272 C496.301339,111.314403 496.337891,111.412767 496.337891,111.511179 C496.337891,111.609639 496.301268,111.708076 496.228093,111.78317 Z" id="arrow3" fill="#9679FF" fill-rule="nonzero" transform="translate(494.812012, 111.511230) rotate(-270.000000) translate(-494.812012, -111.511230) "></path>
                            <path d="M62.0727539,125.244141 L500.427246,125.244141" id="divider3" stroke="#B2B0C4" stroke-width="0.549316406" opacity="0.441745924"></path>
                            <text id="Lura-Sharp" font-family="Lato-Bold, Lato" font-size="8.7890625" font-weight="bold" fill="#4F4D6A">
                                <tspan x="64.8193359" y="87.0029297">Lura Sharp</tspan>
                            </text>
                            <path d="M496.228093,83.7680336 L493.926124,86.1299336 C493.779691,86.2802565 493.542275,86.2802565 493.395913,86.1299336 C493.249539,85.9797443 493.249539,85.7361519 493.395913,85.5859748 L495.4328,83.4960542 L493.395972,81.4062066 C493.249599,81.2559566 493.249599,81.0123884 493.395972,80.8621992 C493.542346,80.7119492 493.77975,80.7119492 493.926183,80.8621992 L496.228152,83.2241356 C496.301339,83.2992667 496.337891,83.3976301 496.337891,83.4960421 C496.337891,83.5945027 496.301268,83.692939 496.228093,83.7680336 Z" id="arrow2" fill="#9679FF" fill-rule="nonzero" transform="translate(494.812012, 83.496094) rotate(-270.000000) translate(-494.812012, -83.496094) "></path>
                            <path d="M62.0727539,97.2290039 L500.427246,97.2290039" id="divider2" stroke="#B2B0C4" stroke-width="0.549316406" opacity="0.441745924"></path>
                            <text id="Bruce-McDonald" opacity="0.8" font-family="Lato-Bold, Lato" font-size="8.7890625" font-weight="bold" fill="#242246">
                                <tspan x="64.8193359" y="58.987793">Bruce McDonald</tspan>
                            </text>
                            <path d="M64.8193359,69.2138672 L503.173828,69.2138672" id="divider1" stroke="#B2B0C4" stroke-width="0.549316406" opacity="0.441745924"></path>
                            <path d="M496.228093,55.7528969 L493.926124,58.1147969 C493.779691,58.2651198 493.542275,58.2651198 493.395913,58.1147969 C493.249539,57.9646076 493.249539,57.7210152 493.395913,57.5708381 L495.4328,55.4809175 L493.395972,53.3910699 C493.249599,53.2408199 493.249599,52.9972517 493.395972,52.8470625 C493.542346,52.6968125 493.77975,52.6968125 493.926183,52.8470625 L496.228152,55.2089989 C496.301339,55.28413 496.337891,55.3824934 496.337891,55.4809054 C496.337891,55.579366 496.301268,55.6778023 496.228093,55.7528969 Z" id="arrow1" fill="#9679FF" fill-rule="nonzero" transform="translate(494.812012, 55.480957) rotate(-270.000000) translate(-494.812012, -55.480957) "></path>
                            <rect id="Rectangle-2" fill="#FFFFFF" x="5.68434189e-14" y="0" width="562.5" height="27.4658203"></rect>
                            <circle id="avatar-bg" stroke-opacity="0.265143795" stroke="#B2B0C4" stroke-width="0.549316406" fill="#FFFFFF" cx="537.780762" cy="13.7329102" r="8.23974609"></circle>
                            <text id="AG" font-family="Lato-Black, Lato" font-size="6.59179688" font-weight="700" fill="#605E77">
                                <tspan x="533.409851" y="16.8876953">AG</tspan>
                            </text>
                            <g id="add-shadow">
                                <use fill="black" fill-opacity="1" filter="url(#filter-10)" xlink:href="#path-9"></use>
                                <use fill="#7ED321" fill-rule="evenodd" xlink:href="#path-9"></use>
                            </g>
                            <circle id="add-bg" fill="#83D86A" cx="512.786865" cy="14.0075684" r="7.41577148"></circle>
                            <path d="M515.546526,13.4713304 L513.323103,13.4713304 L513.323103,11.2479079 C513.323103,11.1035192 513.20618,10.9863281 513.061523,10.9863281 C512.916867,10.9863281 512.799944,11.1035192 512.799944,11.2479079 L512.799944,13.4713304 L510.576521,13.4713304 C510.431864,13.4713304 510.314941,13.5885215 510.314941,13.7329102 C510.314941,13.8772988 510.431864,13.9944899 510.576521,13.9944899 L512.799944,13.9944899 L512.799944,16.2179124 C512.799944,16.3623011 512.916867,16.4794922 513.061523,16.4794922 C513.20618,16.4794922 513.323103,16.3623011 513.323103,16.2179124 L513.323103,13.9944899 L515.546526,13.9944899 C515.691183,13.9944899 515.808105,13.8772988 515.808105,13.7329102 C515.808105,13.5885215 515.691183,13.4713304 515.546526,13.4713304 Z" id="add-icon" fill="#FFFFFF" fill-rule="nonzero"></path>
                            <g id="team-notes-shadow" fill="black" fill-opacity="1">
                                <use filter="url(#filter-12)" xlink:href="#path-11"></use>
                            </g>
                            <rect id="team-notes-btn" fill="url(#linearGradient-13)" x="244.445801" y="7.14111328" width="51.0864258" height="13.7329102" rx="2.74658203"></rect>
                            <text id="Team-notes" font-family="Lato-Bold, Lato" font-size="5.49316406" font-weight="bold" fill="#FFFFFF">
                                <tspan x="253.688049" y="15.4370117">TEAM NOTES</tspan>
                            </text>
                            <text id="blockers" opacity="0.7" font-family="Lato-Regular, Lato" font-size="5.49316406" font-weight="normal" fill="#605E77">
                                <tspan x="305.134277" y="15.4370117">BLOCKERS</tspan>
                            </text>
                            <path d="M552.929753,13.8827797 L550.627784,16.2446797 C550.481351,16.3950026 550.243935,16.3950026 550.097573,16.2446797 C549.9512,16.0944904 549.9512,15.850898 550.097573,15.7007209 L552.13446,13.6108003 L550.097633,11.5209527 C549.951259,11.3707027 549.951259,11.1271345 550.097633,10.9769453 C550.244006,10.8266953 550.48141,10.8266953 550.627843,10.9769453 L552.929812,13.3388817 C553.002999,13.4140128 553.039551,13.5123762 553.039551,13.6107882 C553.039551,13.7092488 553.002928,13.8076851 552.929753,13.8827797 Z" id="dd-arrow" fill="#9679FF" fill-rule="nonzero" transform="translate(551.513672, 13.610840) rotate(-270.000000) translate(-551.513672, -13.610840) "></path>
                            <g id="scrumbs-logo-colored" transform="translate(8.239746, 7.690430)">
                                <g>
                                    <path d="M13.1097785,12.3336143 L13.4832868,11.3505717 C14.0527842,11.7953879 14.7463841,12.0311567 15.4567161,12.0213805 C15.7772805,12.0213805 16.0238685,11.9651632 16.1986559,11.8534884 C16.3624873,11.7602667 16.4631482,11.5792609 16.459749,11.3839981 C16.4656547,11.2253421 16.3981434,11.0734427 16.2784343,10.9760431 C16.1573161,10.8757636 15.9513426,10.7876392 15.6597885,10.7131893 L14.7633686,10.501235 C13.7818517,10.2778853 13.2910932,9.75243099 13.2910932,8.92487222 C13.2861601,8.59749395 13.3834422,8.27738641 13.5681421,8.01324073 C13.7689502,7.73605781 14.0383116,7.52168669 14.3470701,7.39333132 C14.7156008,7.23790177 15.1102765,7.1619369 15.5074842,7.16998161 C15.8843565,7.16892381 16.2589663,7.23098902 16.6171302,7.35382729 C16.9599854,7.46877289 17.279625,7.64905824 17.5599667,7.88561233 L17.1647006,8.83598815 C16.6246245,8.41866354 16.0698015,8.21000119 15.5002316,8.21000119 C15.1941724,8.21000119 14.9560458,8.26951045 14.7858517,8.38852903 C14.6225322,8.49286958 14.5246862,8.68048114 14.52911,8.88081003 C14.5230331,9.02863373 14.579883,9.17166263 14.6843154,9.27129218 C14.7873022,9.36853287 14.9632983,9.4505797 15.2123039,9.51743268 L16.1297563,9.73014669 C16.6616127,9.85625571 17.0510767,10.05175 17.2981482,10.3166296 C17.5452198,10.5815092 17.6680302,10.9261565 17.6665797,11.3505717 C17.6803022,11.8433087 17.4555018,12.3099694 17.0689664,12.5911502 C16.6700741,12.8950273 16.1258882,13.0469659 15.4364088,13.0469659 C14.4611774,13.0484853 13.685634,12.8107014 13.1097785,12.3336143 Z" id="Path" fill="#0F145B"></path>
                                    <path d="M19.5609558,12.6914296 C19.1554026,12.4609707 18.8248157,12.1088682 18.611592,11.6802784 C18.3911133,11.2442146 18.2808739,10.7319284 18.2808739,10.1434196 C18.2697596,9.60325298 18.3890013,9.06888781 18.6275477,8.58984765 C18.8518724,8.15000741 19.1925914,7.78730837 19.6088228,7.54526991 C20.0583697,7.28862052 20.5641519,7.15951059 21.0760215,7.1707413 C21.4557446,7.16946687 21.8330819,7.23363126 22.19292,7.36066453 C22.5142574,7.46377241 22.8084239,7.6434517 23.0523517,7.88561233 L22.6788435,8.8732131 C22.4616222,8.68573958 22.21665,8.53665319 21.9535846,8.43183152 C21.7120776,8.33351381 21.4555118,8.28202965 21.1964144,8.27989294 C20.7129085,8.27989294 20.3357739,8.43816227 20.0650106,8.75470101 C19.7942474,9.07123974 19.6591074,9.52705548 19.659591,10.1221482 C19.659591,10.7177475 19.7930386,11.1720438 20.0599338,11.4850373 C20.3268291,11.7980308 20.7056559,11.9545275 21.1964144,11.9545275 C21.4559425,11.9525817 21.7128028,11.8994922 21.9535846,11.7980308 C22.2161562,11.6897858 22.4608858,11.5390526 22.6788435,11.3513313 L23.0523517,12.334374 C22.7970691,12.5748171 22.4949002,12.7542017 22.1668107,12.8600814 C21.7985376,12.9873651 21.4130534,13.0514989 21.0252533,13.0500047 C20.461969,13.0494982 19.9738698,12.9299732 19.5609558,12.6914296 Z" id="Path" fill="#0F145B"></path>
                                    <path d="M27.261754,7.27102077 L27.2508751,8.54502576 C27.0273289,8.44930894 26.78815,8.40002766 26.5466488,8.39992442 C26.0921532,8.39992442 25.7454795,8.53768204 25.5066276,8.81319736 C25.2677757,9.08871268 25.1485915,9.45387168 25.149075,9.90867452 L25.149075,12.9596012 L23.8262029,12.9596012 L23.8262029,8.91423652 C23.8296337,8.38109801 23.8010504,7.84826126 23.7406224,7.31888142 L24.9887928,7.31888142 L25.0939553,8.31028066 C25.2142172,7.96595699 25.4389143,7.6724175 25.7336336,7.47461847 C26.030533,7.27917571 26.3751671,7.17810716 26.7257877,7.18365608 C26.908018,7.17856755 27.089617,7.20816891 27.261754,7.27102077 Z" id="Path" fill="#0F145B"></path>
                                    <path d="M32.7976546,7.31584265 L32.7976546,12.9596012 L31.4921887,12.9596012 L31.4921887,12.0882335 C31.3335784,12.3891454 31.0969928,12.6369636 30.8097201,12.8031045 C30.5078333,12.9716703 30.1697517,13.0564112 29.8277197,13.049245 C28.5121002,13.049245 27.8542904,12.2743582 27.8542904,10.7245847 L27.8542904,7.31584265 L29.1771625,7.31584265 L29.1771625,10.7344607 C29.1771625,11.1441884 29.2571827,11.4457865 29.4172232,11.639255 C29.5775054,11.8337363 29.8240934,11.9302173 30.159163,11.9302173 C30.5498358,11.9302173 30.862664,11.7960049 31.0976479,11.5275801 C31.3326318,11.2591553 31.4501237,10.9015931 31.4501237,10.4548937 L31.4501237,7.31584265 L32.7976546,7.31584265 Z" id="Path" fill="#0F145B"></path>
                                    <path d="M41.7662052,7.7488676 C42.0650118,8.13327221 42.2144152,8.71570346 42.2144152,9.49616128 L42.2144152,12.9603609 L40.8806642,12.9603609 L40.8806642,9.54174285 C40.8806642,9.09453694 40.8112811,8.77217394 40.6725149,8.57465379 C40.5337487,8.37713363 40.3043251,8.27837356 39.9842443,8.27837356 C39.6143623,8.27837356 39.3242587,8.41435859 39.1139337,8.68632864 C38.9036086,8.9582987 38.7994131,9.33232082 38.8013471,9.80839506 L38.8013471,12.9596012 L37.4661456,12.9596012 L37.4661456,9.54098316 C37.4661456,9.10137417 37.3936198,8.78078377 37.248568,8.57921195 C37.1035162,8.37764012 36.8743344,8.27634768 36.5610226,8.27533478 C36.1911406,8.27533478 35.8993448,8.41131981 35.6856352,8.68328987 C35.4719256,8.95525993 35.3653125,9.32978853 35.3657961,9.80687568 L35.3657961,12.9580818 L34.0414735,12.9580818 L34.0414735,8.91423652 C34.0449042,8.38109801 34.016321,7.84826126 33.9558929,7.31888142 L35.2040634,7.31888142 L35.3005228,8.21303997 C35.4461197,7.88977377 35.6824461,7.62075884 35.9779145,7.44195167 C36.2885644,7.25870113 36.6404554,7.16609249 36.9969032,7.17378008 C37.8212807,7.17378008 38.358214,7.5313422 38.607703,8.24646645 C38.7740424,7.91572617 39.0278586,7.64221029 39.3387639,7.45866491 C39.662302,7.26673564 40.0287583,7.16841214 40.4005428,7.17378008 C41.0121778,7.17175423 41.4673986,7.36345007 41.7662052,7.7488676 Z" id="Path" fill="#0F145B"></path>
                                    <path d="M47.7459642,7.53387451 C48.1120915,7.78443263 48.4024242,8.13914828 48.5829129,8.55642116 C48.790713,9.03682307 48.8930661,9.55990673 48.8824448,10.0872024 C48.8923796,10.6205417 48.7885621,11.1494813 48.5785613,11.6354565 C48.3974874,12.0600477 48.10529,12.4222223 47.7358106,12.6800342 C47.3689028,12.9285102 46.9397187,13.0570318 46.5028706,13.049245 C46.1328768,13.0564127 45.7673087,12.9640818 45.4410917,12.7810734 C45.1406431,12.6118111 44.8967128,12.3504681 44.7419422,12.0320162 L44.7419422,12.9596012 L43.429949,12.9596012 L43.429949,4.73440617 L44.752821,4.73440617 L44.752821,8.16517931 C44.9144457,7.85441949 45.1592115,7.59988089 45.4570474,7.43283536 C45.7787709,7.25391687 46.1386773,7.16372064 46.5028706,7.1707413 C46.9422096,7.16193908 47.3743808,7.28818519 47.7459642,7.53387451 Z M47.1744603,11.4622465 C47.4162132,11.1340592 47.5370897,10.6757111 47.5370897,10.0872024 C47.5370897,9.49869356 47.4162132,9.04996834 47.1744603,8.74102653 C46.9327073,8.4244878 46.5879676,8.26621847 46.1402412,8.26621847 C45.6925148,8.26621847 45.3475333,8.42626047 45.1052968,8.74634438 C44.8635439,9.06693479 44.7426674,9.52275053 44.7426674,10.1137916 C44.7426674,10.7104037 44.8635439,11.1662195 45.1052968,11.4812388 C45.3470498,11.7962582 45.6954158,11.9545275 46.1503948,11.9560469 C46.5913522,11.9545275 46.9327073,11.7899274 47.1744603,11.4622465 Z" id="Shape" fill="#0F145B" fill-rule="nonzero"></path>
                                    <path d="M49.4372678,12.3336143 L49.8107761,11.3505717 C50.380151,11.7950761 51.0734201,12.0308191 51.7834801,12.0213805 C52.103561,12.0213805 52.3506325,11.9654164 52.5246946,11.8534884 C52.6886878,11.7603424 52.7896046,11.5793793 52.7865131,11.3839981 C52.7921772,11.2253931 52.7247147,11.0736035 52.6051983,10.9760431 C52.4840801,10.8757636 52.2773814,10.7876392 51.9858273,10.7131893 L51.0894074,10.501235 C50.1078905,10.2778853 49.617132,9.75243099 49.617132,8.92487222 C49.612462,8.59741548 49.709996,8.27731698 49.8949061,8.01324073 C50.0957142,7.73605781 50.3650756,7.52168669 50.6738341,7.39333132 C51.042337,7.23780113 51.4370324,7.16183247 51.8342482,7.16998161 C52.2111253,7.16885857 52.585745,7.23092541 52.9438942,7.35382729 C53.2868149,7.46861141 53.6064817,7.64891207 53.8867307,7.88561233 L53.4921899,8.83598815 C52.9511468,8.41866354 52.3963238,8.21000119 51.8277209,8.21000119 C51.5216617,8.21000119 51.2832932,8.26951045 51.1126157,8.38852903 C50.9494623,8.49294699 50.8518728,8.68059691 50.8565993,8.88081003 C50.850237,9.0285314 50.9068306,9.17158401 51.0110794,9.27129218 C51.1140662,9.36853287 51.2900624,9.4505797 51.5390679,9.51743268 L52.4572455,9.73014669 C52.989102,9.85625571 53.3783243,10.05175 53.6249123,10.3166296 C53.8715003,10.5815092 53.9943107,10.9261565 53.9933437,11.3505717 C54.0070662,11.8433087 53.7822658,12.3099694 53.3957305,12.5911502 C52.9973216,12.8950273 52.4531357,13.0469659 51.7631728,13.0469659 C50.789392,13.0484853 50.0140903,12.8107014 49.4372678,12.3336143 Z" id="Path" fill="#0F145B"></path>
                                    <polygon id="Path" fill="#0085C7" points="2.33533342 5.54575819 2.33533342 12.7932285 7.92780421 12.7932285 8.99320943 6.32140464 4.78670824 7.83395321"></polygon>
                                    <polygon id="Path" fill="#0F145B" points="2.39335412 12.7932285 2.33533342 9.61011521 0 10.4594519"></polygon>
                                    <polygon id="Path" fill="#6ACFEE" points="2.33533342 5.54575819 4.78670824 7.86282154 12.2808077 5.09981845 10.5278571 0"></polygon>
                                </g>
                            </g>
                        </g>
                        <circle id="Oval-Copy-2" fill="#D4D6E5" fill-rule="nonzero" cx="32.2788462" cy="8.80641526" r="3.02884615"></circle>
                    </g>
                    <g id="scrumbs-notes-ui" transform="translate(170.000000, 143.526365)">
                        <g id="Rectangle">
                            <use fill="black" fill-opacity="1" filter="url(#filter-15)" xlink:href="#path-14"></use>
                            <use fill="#EAEBF1" fill-rule="evenodd" xlink:href="#path-14"></use>
                        </g>
                        <g id="Group-25" transform="translate(0.000000, 15.000000)">
                            <polygon id="Rectangle" fill="#F3F2FC" points="0 0 562.5 0 562.5 440.002441 0 440.002441"></polygon>
                            <path d="M0,27.4658203 L562.5,27.4658203" id="Path-2" opacity="0.430876359"></path>
                            <path d="M508.666992,69.7631836 L523.498535,69.7631836 C525.015431,69.7631836 526.245117,70.9928703 526.245117,72.5097656 L526.245117,104.370117 C526.245117,105.887013 525.015431,107.116699 523.498535,107.116699 L508.666992,107.116699 L508.666992,69.7631836 Z" id="Rectangle-5" fill="#9679FF"></path>
                            <g id="edit-icon" transform="translate(514.160156, 75.256348)" fill="#FFFFFF">
                                <g id="pencil">
                                    <polygon id="Rectangle-path" fill-rule="nonzero" transform="translate(4.016876, 4.016876) rotate(-45.000000) translate(-4.016876, -4.016876) " points="1.33895874 3.57055664 6.6947937 3.57055664 6.6947937 4.4631958 1.33895874 4.4631958"></polygon>
                                    <path d="M6.78292462,0.35818419 C6.55197545,0.127210029 6.24487495,0 5.91823131,0 C5.59158767,0 5.28448717,0.127210029 5.05352406,0.35818419 L4.90951538,0.502191072 L6.63892987,2.2315979 L6.78293856,2.08759102 C7.0139156,1.85661686 7.14111328,1.54953413 7.14111328,1.22289457 C7.14109934,0.896241075 7.01390166,0.58915835 6.78292462,0.35818419 Z" id="Shape" fill-rule="nonzero"></path>
                                    <polygon id="Rectangle-path" fill-rule="nonzero" transform="translate(3.124237, 3.124237) rotate(-45.000000) translate(-3.124237, -3.124237) " points="0.44631958 2.67791748 5.80215454 2.67791748 5.80215454 3.57055664 0.44631958 3.57055664"></polygon>
                                    <path d="M0.5278538,4.90951538 L0.00788226547,6.85011404 C-0.0134961896,6.92988237 0.00932234196,7.0149953 0.0677122474,7.07338518 C0.111627157,7.11732976 0.170670293,7.14111328 0.231168352,7.14111328 C0.25110673,7.14111328 0.271208417,7.1385449 0.290983488,7.13324483 L2.2315979,6.61327353 L0.5278538,4.90951538 Z" id="Shape" fill-rule="nonzero"></path>
                                </g>
                            </g>
                            <path d="M508.666992,88.4399414 L526.245117,88.4399414" id="Path-3" stroke="#FFFFFF" stroke-width="0.549316406" opacity="0.2"></path>
                            <g id="delete-icon" transform="translate(514.709473, 94.482422)" fill="#FFFFFF">
                                <g id="delete-photo">
                                    <path d="M0.489117348,6.98295865 C0.489117348,7.07030745 0.559488373,7.14111328 0.646300786,7.14111328 L4.63616657,7.14111328 C4.72297899,7.14111328 4.79335001,7.07030745 4.79335001,6.98295865 L4.79335001,1.85864592 L0.489117348,1.85864592 L0.489117348,6.98295865 Z M3.52539052,2.73070263 L4.11482841,2.73070263 L4.11482841,6.17870283 L3.52539052,6.17870283 L3.52539052,2.73070263 Z M2.34651473,2.73070263 L2.93595262,2.73070263 L2.93595262,6.17870283 L2.34651473,6.17870283 L2.34651473,2.73070263 Z M1.16763895,2.73070263 L1.75707684,2.73070263 L1.75707684,6.17870283 L1.16763895,6.17870283 L1.16763895,2.73070263 Z" id="Shape" fill-rule="nonzero"></path>
                                    <path d="M3.92311552,0.736662536 L3.92311552,0.160299101 C3.92311552,0.0717659077 3.85242932,0 3.7652281,0 L1.41941579,0 C1.33221456,0 1.26152837,0.0717659077 1.26152837,0.160299101 L1.26152837,0.736662536 L1.26152837,0.836849474 L1.26152837,0.937036413 L0.157887418,0.937036413 C0.0706861972,0.937036413 0,1.00880232 0,1.09733551 L0,1.50269988 C0,1.59122506 0.0706861972,1.66299898 0.157887418,1.66299898 L0.430566884,1.66299898 L4.754077,1.66299898 L5.02675647,1.66299898 C5.11395769,1.66299898 5.18464389,1.59122506 5.18464389,1.50269988 L5.18464389,1.09733551 C5.18464389,1.00880232 5.11395769,0.937036413 5.02675647,0.937036413 L3.92311552,0.937036413 L3.92311552,0.836849474 L3.92311552,0.736662536 Z M3.3310377,0.904078917 L1.85360619,0.904078917 L1.85360619,0.836841459 L1.85360619,0.736654521 L1.85360619,0.601121631 L3.3310377,0.601121631 L3.3310377,0.736662536 L3.3310377,0.836849474 L3.3310377,0.904078917 Z" id="Shape" fill-rule="nonzero"></path>
                                </g>
                            </g>
                            <g id="Rectangle">
                                <use fill="black" fill-opacity="1" filter="url(#filter-17)" xlink:href="#path-16"></use>
                                <use fill="url(#linearGradient-6)" fill-rule="evenodd" xlink:href="#path-16"></use>
                            </g>
                            <polygon id="Rectangle" fill="#FFFFFF" points="53.8330078 69.7631836 508.666992 69.7631836 508.666992 287.29248 53.8330078 287.29248"></polygon>
                            <text id="Magna-wisi-rutrum-ac" font-family="Lato-Regular, Lato" font-size="6.59179688" font-weight="normal" line-spacing="9.33837891" fill="#242246">
                                <tspan x="64.8193359" y="102.581055">Magna wisi rutrum ac interdum non, velit molestie, tortor magna at nec magnis erat suspendisse, nec ligula est dolor quis mi, molestias non etiam in </tspan>
                                <tspan x="64.8193359" y="111.919434">at mauris. Diam gravida amet dui massa. Ut nunc arcu nibh molestie enim proin, mauris interdum tempus sapien et lorem.</tspan>
                            </text>
                            <rect id="gradient" fill="url(#linearGradient-18)" x="55.480957" y="91.7358398" width="447.692871" height="27.4658203"></rect>
                            <polygon id="Rectangle" fill="#FFFFFF" points="53.8330078 69.7631836 508.666992 69.7631836 508.666992 97.2290039 53.8330078 97.2290039"></polygon>
                            <text id="Magna-wisi-rutrum-ac" font-family="Lato-Regular, Lato" font-size="6.59179688" font-weight="normal" line-spacing="9.33837891" fill="#242246">
                                <tspan x="64.8193359" y="218.486816">Magna wisi rutrum ac interdum non, velit molestie, tortor magna at nec magnis erat suspendisse, nec ligula est dolor quis mi, molestias non etiam in </tspan>
                                <tspan x="64.8193359" y="227.825195">at mauris. Diam gravida amet dui massa. Ut nunc arcu nibh molestie enim proin, mauris interdum tempus sapien et lorem.</tspan>
                            </text>
                            <rect id="Rectangle-4" fill="#FFC500" x="64.8193359" y="196.105957" width="42.2973633" height="9.88769531" rx="2.74658203"></rect>
                            <text id="24-Apr.-2018" font-family="Lato-Bold, Lato" font-size="5.49316406" font-weight="bold" fill="#FFFFFF">
                                <tspan x="69.7631836" y="202.753906">24 Apr. 2018</tspan>
                            </text>
                            <text id="Rutrum-lorem-sollici" font-family="Lato-Regular, Lato" font-size="6.59179688" font-weight="normal" line-spacing="9.33837891" fill="#242246">
                                <tspan x="64.8193359" y="145.427734">Rutrum lorem sollicitudin vestibulum. Congue arcu cubilia lacus est rutrum, nec sit dignissim pellentesque gravida ante consectetuer. Luctus semper </tspan>
                                <tspan x="64.8193359" y="154.766113">odio sagittis sapien neque lorem, conubia mauris nec, purus suspendisse, ac pellentesque pulvinar erat ac tincidunt aliquam.</tspan>
                                <tspan x="64.8193359" y="164.104492"></tspan>
                                <tspan x="64.8193359" y="173.442871">      Maiores sagittis metus.</tspan>
                                <tspan x="64.8193359" y="182.78125">      Amet nec morbi non lorem nunc, tristique dignissim ridiculus.</tspan>
                            </text>
                            <g id="barrier-copy-2" transform="translate(64.819336, 168.640137)" fill-rule="nonzero">
                                <path d="M1.81370974,4.36738729 L1.81370974,3.44202518 L0.761210918,3.44202518 L0.761210918,4.36738729 C0.474123359,4.36738729 0.241398811,4.60011184 0.241398811,4.8871994 L0.241398811,5.27665615 L2.33352184,5.27665615 L2.33352184,4.8871994 C2.33352184,4.60011184 2.1007973,4.36738729 1.81370974,4.36738729 Z" id="Shape" fill="#28294B"></path>
                                <path d="M7.47853518,4.36738729 L7.47853518,3.44202518 L6.42603636,3.44202518 L6.42603636,4.36738729 C6.1389488,4.36738729 5.90622425,4.60011184 5.90622425,4.8871994 L5.90622425,5.27665615 L7.99834728,5.27665615 L7.99834728,4.8871994 C7.99834728,4.60011184 7.76562274,4.36738729 7.47853518,4.36738729 Z" id="Shape" fill="#28294B"></path>
                                <rect id="Rectangle-path" fill="#F0E7DF" x="0" y="0.00194728374" width="8.23974609" height="3.68149281"></rect>
                                <rect id="Rectangle-path" fill="#DFCDBD" x="4.12791967" y="0.00194728374" width="4.11182642" height="3.68149281"></rect>
                                <g id="Group" fill="#FC025C">
                                    <path d="M2.17773914,0.00193119049 C2.17598498,0.0043451786 0.0756704807,2.85449266 0,2.95713544 L0,1.20184422 C0.637276769,0.336847901 0.201246142,0.928966999 0.88416338,0.00193119049 C0.88416338,0.00193119049 2.17773914,0.00193119049 2.17773914,0.00193119049 Z" id="Shape"></path>
                                    <path d="M4.80576754,0.00194728374 C4.80512381,0.00291287899 4.51657176,0.394461751 4.12791967,0.921837687 C3.33886743,1.99252188 2.13718414,3.62325132 2.09276676,3.68344009 L0.799351931,3.68344009 C1.66307688,2.51104653 2.64283419,1.18206561 3.51219177,0.00194728374 C3.51219177,0.00194728374 4.80576754,0.00194728374 4.80576754,0.00194728374 Z" id="Shape"></path>
                                    <path d="M7.43379593,0.00193476677 C7.43154287,0.00484406948 4.79466319,3.58334005 4.72079515,3.68344009 L3.42738032,3.68344009 C3.65445614,3.37525427 3.88925672,3.05660784 4.12791967,2.73281157 C4.7991693,1.82177246 5.50019145,0.870822072 6.14022017,0.00194728374 C6.14022017,0.00193119049 7.43379593,0.00193476677 7.43379593,0.00193476677 Z" id="Shape"></path>
                                </g>
                                <g id="Group" transform="translate(4.119873, 0.000000)" fill="#CD0045">
                                    <path d="M4.11987305,0.719223619 L4.11987305,2.47467577 C3.94096434,2.71750689 3.5018599,3.31344008 3.22911143,3.68344009 L1.93553567,3.68344009 C2.45977342,2.97179639 4.10197735,0.743524432 4.11987305,0.719223619 Z" id="Shape"></path>
                                    <path d="M0.685894489,0.00194728374 C0.685250759,0.00291287899 0.396698713,0.394461751 0.00804662704,0.921837687 L0.00804662704,0.00194728374 L0.685894489,0.00194728374 Z" id="Shape"></path>
                                    <path d="M3.31392288,0.00193476677 C3.31166983,0.00484406948 0.674790144,3.58334005 0.600922108,3.68344009 L0.00804662704,3.68344009 L0.00804662704,2.73281157 C0.679296255,1.82177246 1.3803184,0.870822072 2.02034712,0.00194728374 C2.02034712,0.00193119049 3.31392288,0.00193476677 3.31392288,0.00193476677 Z" id="Shape"></path>
                                </g>
                            </g>
                            <g id="barrier-copy-3" transform="translate(64.819336, 177.978516)" fill-rule="nonzero">
                                <path d="M1.81370974,4.36738729 L1.81370974,3.44202518 L0.761210918,3.44202518 L0.761210918,4.36738729 C0.474123359,4.36738729 0.241398811,4.60011184 0.241398811,4.8871994 L0.241398811,5.27665615 L2.33352184,5.27665615 L2.33352184,4.8871994 C2.33352184,4.60011184 2.1007973,4.36738729 1.81370974,4.36738729 Z" id="Shape" fill="#28294B"></path>
                                <path d="M7.47853518,4.36738729 L7.47853518,3.44202518 L6.42603636,3.44202518 L6.42603636,4.36738729 C6.1389488,4.36738729 5.90622425,4.60011184 5.90622425,4.8871994 L5.90622425,5.27665615 L7.99834728,5.27665615 L7.99834728,4.8871994 C7.99834728,4.60011184 7.76562274,4.36738729 7.47853518,4.36738729 Z" id="Shape" fill="#28294B"></path>
                                <rect id="Rectangle-path" fill="#F0E7DF" x="0" y="0.00194728374" width="8.23974609" height="3.68149281"></rect>
                                <rect id="Rectangle-path" fill="#DFCDBD" x="4.12791967" y="0.00194728374" width="4.11182642" height="3.68149281"></rect>
                                <g id="Group" fill="#FC025C">
                                    <path d="M2.17773914,0.00193119049 C2.17598498,0.0043451786 0.0756704807,2.85449266 0,2.95713544 L0,1.20184422 C0.637276769,0.336847901 0.201246142,0.928966999 0.88416338,0.00193119049 C0.88416338,0.00193119049 2.17773914,0.00193119049 2.17773914,0.00193119049 Z" id="Shape"></path>
                                    <path d="M4.80576754,0.00194728374 C4.80512381,0.00291287899 4.51657176,0.394461751 4.12791967,0.921837687 C3.33886743,1.99252188 2.13718414,3.62325132 2.09276676,3.68344009 L0.799351931,3.68344009 C1.66307688,2.51104653 2.64283419,1.18206561 3.51219177,0.00194728374 C3.51219177,0.00194728374 4.80576754,0.00194728374 4.80576754,0.00194728374 Z" id="Shape"></path>
                                    <path d="M7.43379593,0.00193476677 C7.43154287,0.00484406948 4.79466319,3.58334005 4.72079515,3.68344009 L3.42738032,3.68344009 C3.65445614,3.37525427 3.88925672,3.05660784 4.12791967,2.73281157 C4.7991693,1.82177246 5.50019145,0.870822072 6.14022017,0.00194728374 C6.14022017,0.00193119049 7.43379593,0.00193476677 7.43379593,0.00193476677 Z" id="Shape"></path>
                                </g>
                                <g id="Group" transform="translate(4.119873, 0.000000)" fill="#CD0045">
                                    <path d="M4.11987305,0.719223619 L4.11987305,2.47467577 C3.94096434,2.71750689 3.5018599,3.31344008 3.22911143,3.68344009 L1.93553567,3.68344009 C2.45977342,2.97179639 4.10197735,0.743524432 4.11987305,0.719223619 Z" id="Shape"></path>
                                    <path d="M0.685894489,0.00194728374 C0.685250759,0.00291287899 0.396698713,0.394461751 0.00804662704,0.921837687 L0.00804662704,0.00194728374 L0.685894489,0.00194728374 Z" id="Shape"></path>
                                    <path d="M3.31392288,0.00193476677 C3.31166983,0.00484406948 0.674790144,3.58334005 0.600922108,3.68344009 L0.00804662704,3.68344009 L0.00804662704,2.73281157 C0.679296255,1.82177246 1.3803184,0.870822072 2.02034712,0.00194728374 C2.02034712,0.00193119049 3.31392288,0.00193476677 3.31392288,0.00193476677 Z" id="Shape"></path>
                                </g>
                            </g>
                            <rect id="Rectangle-4" fill="#F75FA3" x="64.8193359" y="123.046875" width="42.2973633" height="9.88769531" rx="2.74658203"></rect>
                            <text id="23-Apr.-2018" font-family="Lato-Bold, Lato" font-size="5.49316406" font-weight="bold" fill="#FFFFFF">
                                <tspan x="69.7631836" y="129.694824">23 Apr. 2018</tspan>
                            </text>
                            <rect id="Rectangle-3" fill="#F6F6F8" x="64.8193359" y="243.347168" width="432.861328" height="35.7055664" rx="2.74658203"></rect>
                            <text id="Enter-your-notes" opacity="0.5" font-family="Lato-Regular, Lato" font-size="6.59179688" font-weight="normal" fill="#605E77">
                                <tspan x="73.059082" y="258.586914">Enter your notes</tspan>
                            </text>
                            <text id="Della-Murphy" opacity="0.8" font-family="Lato-Bold, Lato" font-size="6.59179688" font-weight="bold" fill="#242246">
                                <tspan x="64.8193359" y="333.843262">Della Murphy</tspan>
                            </text>
                            <path d="M496.228093,330.4111 L493.926124,332.773 C493.779691,332.923323 493.542275,332.923323 493.395913,332.773 C493.249539,332.622811 493.249539,332.379218 493.395913,332.229041 L495.4328,330.139121 L493.395972,328.049273 C493.249599,327.899023 493.249599,327.655455 493.395972,327.505266 C493.542346,327.355016 493.77975,327.355016 493.926183,327.505266 L496.228152,329.867202 C496.301339,329.942333 496.337891,330.040696 496.337891,330.139108 C496.337891,330.237569 496.301268,330.336005 496.228093,330.4111 Z" id="Shape" fill="#9679FF" fill-rule="nonzero" transform="translate(494.812012, 330.139160) rotate(-270.000000) translate(-494.812012, -330.139160) "></path>
                            <path d="M62.0727539,343.87207 L500.427246,343.87207" id="Path-2-Copy-4" stroke="#B2B0C4" stroke-width="0.549316406" opacity="0.441745924"></path>
                            <text id="Nell-McKinney" opacity="0.8" font-family="Lato-Bold, Lato" font-size="6.59179688" font-weight="bold" fill="#242246">
                                <tspan x="64.8193359" y="305.828125">Nell McKinney</tspan>
                            </text>
                            <path d="M496.228093,302.395963 L493.926124,304.757863 C493.779691,304.908186 493.542275,304.908186 493.395913,304.757863 C493.249539,304.607674 493.249539,304.364082 493.395913,304.213904 L495.4328,302.123984 L493.395972,300.034136 C493.249599,299.883886 493.249599,299.640318 493.395972,299.490129 C493.542346,299.339879 493.77975,299.339879 493.926183,299.490129 L496.228152,301.852065 C496.301339,301.927196 496.337891,302.02556 496.337891,302.123972 C496.337891,302.222432 496.301268,302.320869 496.228093,302.395963 Z" id="Shape" fill="#9679FF" fill-rule="nonzero" transform="translate(494.812012, 302.124023) rotate(-270.000000) translate(-494.812012, -302.124023) "></path>
                            <path d="M62.0727539,315.856934 L500.427246,315.856934" id="Path-2-Copy-3" stroke="#B2B0C4" stroke-width="0.549316406" opacity="0.441745924"></path>
                            <path d="M62.0727539,287.841797 L500.427246,287.841797" id="Path-2-Copy-6" stroke="#B2B0C4" stroke-width="0.549316406" opacity="0.441745924"></path>
                            <text id="Elsie-Dennis" font-family="Lato-Bold, Lato" font-size="8.7890625" font-weight="bold" fill="#242246">
                                <tspan x="64.8193359" y="87.0029297">Elsie Dennis</tspan>
                            </text>
                            <path d="M496.228093,83.7680336 L493.926124,86.1299336 C493.779691,86.2802565 493.542275,86.2802565 493.395913,86.1299336 C493.249539,85.9797443 493.249539,85.7361519 493.395913,85.5859748 L495.4328,83.4960542 L493.395972,81.4062066 C493.249599,81.2559566 493.249599,81.0123884 493.395972,80.8621992 C493.542346,80.7119492 493.77975,80.7119492 493.926183,80.8621992 L496.228152,83.2241356 C496.301339,83.2992667 496.337891,83.3976301 496.337891,83.4960421 C496.337891,83.5945027 496.301268,83.692939 496.228093,83.7680336 Z" id="Shape" fill="#9679FF" fill-rule="nonzero" transform="translate(494.812012, 83.496094) scale(1, -1) rotate(-270.000000) translate(-494.812012, -83.496094) "></path>
                            <text id="Bruce-McDonald" opacity="0.8" font-family="Lato-Bold, Lato" font-size="6.59179688" font-weight="bold" fill="#242246">
                                <tspan x="64.8193359" y="59.1850586">Bruce McDonald</tspan>
                            </text>
                            <path d="M64.8193359,69.2138672 L503.173828,69.2138672" id="Path-2-Copy-7" stroke="#B2B0C4" stroke-width="0.549316406" opacity="0.441745924"></path>
                            <path d="M496.228093,55.7528969 L493.926124,58.1147969 C493.779691,58.2651198 493.542275,58.2651198 493.395913,58.1147969 C493.249539,57.9646076 493.249539,57.7210152 493.395913,57.5708381 L495.4328,55.4809175 L493.395972,53.3910699 C493.249599,53.2408199 493.249599,52.9972517 493.395972,52.8470625 C493.542346,52.6968125 493.77975,52.6968125 493.926183,52.8470625 L496.228152,55.2089989 C496.301339,55.28413 496.337891,55.3824934 496.337891,55.4809054 C496.337891,55.579366 496.301268,55.6778023 496.228093,55.7528969 Z" id="Shape" fill="#9679FF" fill-rule="nonzero" transform="translate(494.812012, 55.480957) rotate(-270.000000) translate(-494.812012, -55.480957) "></path>
                            <g id="Navbar">
                                <g>
                                    <rect id="Rectangle-2" fill="#FFFFFF" x="0" y="0" width="562.5" height="27.4658203"></rect>
                                    <g id="User" transform="translate(529.541016, 5.493164)">
                                        <circle id="avatar-bg" stroke-opacity="0.265143795" stroke="#B2B0C4" stroke-width="0.549316406" fill="#FFFFFF" cx="8.23974609" cy="8.23974609" r="8.23974609"></circle>
                                        <text id="AG" font-family="Lato-Black, Lato" font-size="6.59179688" font-weight="700" fill="#605E77">
                                            <tspan x="3.86883545" y="11.3945312">AG</tspan>
                                        </text>
                                    </g>
                                    <g id="add-shadow">
                                        <use fill="black" fill-opacity="1" filter="url(#filter-20)" xlink:href="#path-19"></use>
                                        <use fill="#7ED321" fill-rule="evenodd" xlink:href="#path-19"></use>
                                    </g>
                                    <circle id="add-bg" fill="#83D86A" cx="512.786865" cy="14.0075684" r="7.41577148"></circle>
                                    <path d="M515.546526,13.4713304 L513.323103,13.4713304 L513.323103,11.2479079 C513.323103,11.1035192 513.20618,10.9863281 513.061523,10.9863281 C512.916867,10.9863281 512.799944,11.1035192 512.799944,11.2479079 L512.799944,13.4713304 L510.576521,13.4713304 C510.431864,13.4713304 510.314941,13.5885215 510.314941,13.7329102 C510.314941,13.8772988 510.431864,13.9944899 510.576521,13.9944899 L512.799944,13.9944899 L512.799944,16.2179124 C512.799944,16.3623011 512.916867,16.4794922 513.061523,16.4794922 C513.20618,16.4794922 513.323103,16.3623011 513.323103,16.2179124 L513.323103,13.9944899 L515.546526,13.9944899 C515.691183,13.9944899 515.808105,13.8772988 515.808105,13.7329102 C515.808105,13.5885215 515.691183,13.4713304 515.546526,13.4713304 Z" id="add-icon" fill="#FFFFFF" fill-rule="nonzero"></path>
                                    <g id="Group-2" transform="translate(244.445801, 7.141113)">
                                        <g id="team-notes-shadow" fill="black" fill-opacity="1">
                                            <use filter="url(#filter-22)" xlink:href="#path-21"></use>
                                        </g>
                                        <rect id="team-notes-btn" fill="url(#linearGradient-13)" x="0" y="0" width="51.0864258" height="13.7329102" rx="2.74658203"></rect>
                                        <g id="Group" transform="translate(8.789062, 3.295898)" font-size="5.49316406">
                                            <text id="Team-notes" font-family="Lato-Bold, Lato" font-weight="bold" fill="#FFFFFF">
                                                <tspan x="0.453186035" y="5">TEAM NOTES</tspan>
                                            </text>
                                            <text id="blockers" opacity="0.7" font-family="Lato-Regular, Lato" font-weight="normal" fill="#605E77">
                                                <tspan x="51.8994141" y="5">BLOCKERS</tspan>
                                            </text>
                                        </g>
                                    </g>
                                    <path d="M552.929753,13.8827797 L550.627784,16.2446797 C550.481351,16.3950026 550.243935,16.3950026 550.097573,16.2446797 C549.9512,16.0944904 549.9512,15.850898 550.097573,15.7007209 L552.13446,13.6108003 L550.097633,11.5209527 C549.951259,11.3707027 549.951259,11.1271345 550.097633,10.9769453 C550.244006,10.8266953 550.48141,10.8266953 550.627843,10.9769453 L552.929812,13.3388817 C553.002999,13.4140128 553.039551,13.5123762 553.039551,13.6107882 C553.039551,13.7092488 553.002928,13.8076851 552.929753,13.8827797 Z" id="dd-arrow" fill="#9679FF" fill-rule="nonzero" transform="translate(551.513672, 13.610840) rotate(-270.000000) translate(-551.513672, -13.610840) "></path>
                                    <g id="scrumbs-logo-colored" transform="translate(8.239746, 5.493164)">
                                        <g>
                                            <path d="M13.1097785,12.3336143 L13.4832868,11.3505717 C14.0527842,11.7953879 14.7463841,12.0311567 15.4567161,12.0213805 C15.7772805,12.0213805 16.0238685,11.9651632 16.1986559,11.8534884 C16.3624873,11.7602667 16.4631482,11.5792609 16.459749,11.3839981 C16.4656547,11.2253421 16.3981434,11.0734427 16.2784343,10.9760431 C16.1573161,10.8757636 15.9513426,10.7876392 15.6597885,10.7131893 L14.7633686,10.501235 C13.7818517,10.2778853 13.2910932,9.75243099 13.2910932,8.92487222 C13.2861601,8.59749395 13.3834422,8.27738641 13.5681421,8.01324073 C13.7689502,7.73605781 14.0383116,7.52168669 14.3470701,7.39333132 C14.7156008,7.23790177 15.1102765,7.1619369 15.5074842,7.16998161 C15.8843565,7.16892381 16.2589663,7.23098902 16.6171302,7.35382729 C16.9599854,7.46877289 17.279625,7.64905824 17.5599667,7.88561233 L17.1647006,8.83598815 C16.6246245,8.41866354 16.0698015,8.21000119 15.5002316,8.21000119 C15.1941724,8.21000119 14.9560458,8.26951045 14.7858517,8.38852903 C14.6225322,8.49286958 14.5246862,8.68048114 14.52911,8.88081003 C14.5230331,9.02863373 14.579883,9.17166263 14.6843154,9.27129218 C14.7873022,9.36853287 14.9632983,9.4505797 15.2123039,9.51743268 L16.1297563,9.73014669 C16.6616127,9.85625571 17.0510767,10.05175 17.2981482,10.3166296 C17.5452198,10.5815092 17.6680302,10.9261565 17.6665797,11.3505717 C17.6803022,11.8433087 17.4555018,12.3099694 17.0689664,12.5911502 C16.6700741,12.8950273 16.1258882,13.0469659 15.4364088,13.0469659 C14.4611774,13.0484853 13.685634,12.8107014 13.1097785,12.3336143 Z" id="Path" fill="#0F145B"></path>
                                            <path d="M19.5609558,12.6914296 C19.1554026,12.4609707 18.8248157,12.1088682 18.611592,11.6802784 C18.3911133,11.2442146 18.2808739,10.7319284 18.2808739,10.1434196 C18.2697596,9.60325298 18.3890013,9.06888781 18.6275477,8.58984765 C18.8518724,8.15000741 19.1925914,7.78730837 19.6088228,7.54526991 C20.0583697,7.28862052 20.5641519,7.15951059 21.0760215,7.1707413 C21.4557446,7.16946687 21.8330819,7.23363126 22.19292,7.36066453 C22.5142574,7.46377241 22.8084239,7.6434517 23.0523517,7.88561233 L22.6788435,8.8732131 C22.4616222,8.68573958 22.21665,8.53665319 21.9535846,8.43183152 C21.7120776,8.33351381 21.4555118,8.28202965 21.1964144,8.27989294 C20.7129085,8.27989294 20.3357739,8.43816227 20.0650106,8.75470101 C19.7942474,9.07123974 19.6591074,9.52705548 19.659591,10.1221482 C19.659591,10.7177475 19.7930386,11.1720438 20.0599338,11.4850373 C20.3268291,11.7980308 20.7056559,11.9545275 21.1964144,11.9545275 C21.4559425,11.9525817 21.7128028,11.8994922 21.9535846,11.7980308 C22.2161562,11.6897858 22.4608858,11.5390526 22.6788435,11.3513313 L23.0523517,12.334374 C22.7970691,12.5748171 22.4949002,12.7542017 22.1668107,12.8600814 C21.7985376,12.9873651 21.4130534,13.0514989 21.0252533,13.0500047 C20.461969,13.0494982 19.9738698,12.9299732 19.5609558,12.6914296 Z" id="Path" fill="#0F145B"></path>
                                            <path d="M27.261754,7.27102077 L27.2508751,8.54502576 C27.0273289,8.44930894 26.78815,8.40002766 26.5466488,8.39992442 C26.0921532,8.39992442 25.7454795,8.53768204 25.5066276,8.81319736 C25.2677757,9.08871268 25.1485915,9.45387168 25.149075,9.90867452 L25.149075,12.9596012 L23.8262029,12.9596012 L23.8262029,8.91423652 C23.8296337,8.38109801 23.8010504,7.84826126 23.7406224,7.31888142 L24.9887928,7.31888142 L25.0939553,8.31028066 C25.2142172,7.96595699 25.4389143,7.6724175 25.7336336,7.47461847 C26.030533,7.27917571 26.3751671,7.17810716 26.7257877,7.18365608 C26.908018,7.17856755 27.089617,7.20816891 27.261754,7.27102077 Z" id="Path" fill="#0F145B"></path>
                                            <path d="M32.7976546,7.31584265 L32.7976546,12.9596012 L31.4921887,12.9596012 L31.4921887,12.0882335 C31.3335784,12.3891454 31.0969928,12.6369636 30.8097201,12.8031045 C30.5078333,12.9716703 30.1697517,13.0564112 29.8277197,13.049245 C28.5121002,13.049245 27.8542904,12.2743582 27.8542904,10.7245847 L27.8542904,7.31584265 L29.1771625,7.31584265 L29.1771625,10.7344607 C29.1771625,11.1441884 29.2571827,11.4457865 29.4172232,11.639255 C29.5775054,11.8337363 29.8240934,11.9302173 30.159163,11.9302173 C30.5498358,11.9302173 30.862664,11.7960049 31.0976479,11.5275801 C31.3326318,11.2591553 31.4501237,10.9015931 31.4501237,10.4548937 L31.4501237,7.31584265 L32.7976546,7.31584265 Z" id="Path" fill="#0F145B"></path>
                                            <path d="M41.7662052,7.7488676 C42.0650118,8.13327221 42.2144152,8.71570346 42.2144152,9.49616128 L42.2144152,12.9603609 L40.8806642,12.9603609 L40.8806642,9.54174285 C40.8806642,9.09453694 40.8112811,8.77217394 40.6725149,8.57465379 C40.5337487,8.37713363 40.3043251,8.27837356 39.9842443,8.27837356 C39.6143623,8.27837356 39.3242587,8.41435859 39.1139337,8.68632864 C38.9036086,8.9582987 38.7994131,9.33232082 38.8013471,9.80839506 L38.8013471,12.9596012 L37.4661456,12.9596012 L37.4661456,9.54098316 C37.4661456,9.10137417 37.3936198,8.78078377 37.248568,8.57921195 C37.1035162,8.37764012 36.8743344,8.27634768 36.5610226,8.27533478 C36.1911406,8.27533478 35.8993448,8.41131981 35.6856352,8.68328987 C35.4719256,8.95525993 35.3653125,9.32978853 35.3657961,9.80687568 L35.3657961,12.9580818 L34.0414735,12.9580818 L34.0414735,8.91423652 C34.0449042,8.38109801 34.016321,7.84826126 33.9558929,7.31888142 L35.2040634,7.31888142 L35.3005228,8.21303997 C35.4461197,7.88977377 35.6824461,7.62075884 35.9779145,7.44195167 C36.2885644,7.25870113 36.6404554,7.16609249 36.9969032,7.17378008 C37.8212807,7.17378008 38.358214,7.5313422 38.607703,8.24646645 C38.7740424,7.91572617 39.0278586,7.64221029 39.3387639,7.45866491 C39.662302,7.26673564 40.0287583,7.16841214 40.4005428,7.17378008 C41.0121778,7.17175423 41.4673986,7.36345007 41.7662052,7.7488676 Z" id="Path" fill="#0F145B"></path>
                                            <path d="M47.7459642,7.53387451 C48.1120915,7.78443263 48.4024242,8.13914828 48.5829129,8.55642116 C48.790713,9.03682307 48.8930661,9.55990673 48.8824448,10.0872024 C48.8923796,10.6205417 48.7885621,11.1494813 48.5785613,11.6354565 C48.3974874,12.0600477 48.10529,12.4222223 47.7358106,12.6800342 C47.3689028,12.9285102 46.9397187,13.0570318 46.5028706,13.049245 C46.1328768,13.0564127 45.7673087,12.9640818 45.4410917,12.7810734 C45.1406431,12.6118111 44.8967128,12.3504681 44.7419422,12.0320162 L44.7419422,12.9596012 L43.429949,12.9596012 L43.429949,4.73440617 L44.752821,4.73440617 L44.752821,8.16517931 C44.9144457,7.85441949 45.1592115,7.59988089 45.4570474,7.43283536 C45.7787709,7.25391687 46.1386773,7.16372064 46.5028706,7.1707413 C46.9422096,7.16193908 47.3743808,7.28818519 47.7459642,7.53387451 Z M47.1744603,11.4622465 C47.4162132,11.1340592 47.5370897,10.6757111 47.5370897,10.0872024 C47.5370897,9.49869356 47.4162132,9.04996834 47.1744603,8.74102653 C46.9327073,8.4244878 46.5879676,8.26621847 46.1402412,8.26621847 C45.6925148,8.26621847 45.3475333,8.42626047 45.1052968,8.74634438 C44.8635439,9.06693479 44.7426674,9.52275053 44.7426674,10.1137916 C44.7426674,10.7104037 44.8635439,11.1662195 45.1052968,11.4812388 C45.3470498,11.7962582 45.6954158,11.9545275 46.1503948,11.9560469 C46.5913522,11.9545275 46.9327073,11.7899274 47.1744603,11.4622465 Z" id="Shape" fill="#0F145B" fill-rule="nonzero"></path>
                                            <path d="M49.4372678,12.3336143 L49.8107761,11.3505717 C50.380151,11.7950761 51.0734201,12.0308191 51.7834801,12.0213805 C52.103561,12.0213805 52.3506325,11.9654164 52.5246946,11.8534884 C52.6886878,11.7603424 52.7896046,11.5793793 52.7865131,11.3839981 C52.7921772,11.2253931 52.7247147,11.0736035 52.6051983,10.9760431 C52.4840801,10.8757636 52.2773814,10.7876392 51.9858273,10.7131893 L51.0894074,10.501235 C50.1078905,10.2778853 49.617132,9.75243099 49.617132,8.92487222 C49.612462,8.59741548 49.709996,8.27731698 49.8949061,8.01324073 C50.0957142,7.73605781 50.3650756,7.52168669 50.6738341,7.39333132 C51.042337,7.23780113 51.4370324,7.16183247 51.8342482,7.16998161 C52.2111253,7.16885857 52.585745,7.23092541 52.9438942,7.35382729 C53.2868149,7.46861141 53.6064817,7.64891207 53.8867307,7.88561233 L53.4921899,8.83598815 C52.9511468,8.41866354 52.3963238,8.21000119 51.8277209,8.21000119 C51.5216617,8.21000119 51.2832932,8.26951045 51.1126157,8.38852903 C50.9494623,8.49294699 50.8518728,8.68059691 50.8565993,8.88081003 C50.850237,9.0285314 50.9068306,9.17158401 51.0110794,9.27129218 C51.1140662,9.36853287 51.2900624,9.4505797 51.5390679,9.51743268 L52.4572455,9.73014669 C52.989102,9.85625571 53.3783243,10.05175 53.6249123,10.3166296 C53.8715003,10.5815092 53.9943107,10.9261565 53.9933437,11.3505717 C54.0070662,11.8433087 53.7822658,12.3099694 53.3957305,12.5911502 C52.9973216,12.8950273 52.4531357,13.0469659 51.7631728,13.0469659 C50.789392,13.0484853 50.0140903,12.8107014 49.4372678,12.3336143 Z" id="Path" fill="#0F145B"></path>
                                            <polygon id="Path" fill="#0085C7" points="2.33533342 5.54575819 2.33533342 12.7932285 7.92780421 12.7932285 8.99320943 6.32140464 4.78670824 7.83395321"></polygon>
                                            <polygon id="Path" fill="#0F145B" points="2.39335412 12.7932285 2.33533342 9.61011521 0 10.4594519"></polygon>
                                            <polygon id="Path" fill="#6ACFEE" points="2.33533342 5.54575819 4.78670824 7.86282154 12.2808077 5.09981845 10.5278571 0"></polygon>
                                        </g>
                                    </g>
                                </g>
                            </g>
                        </g>
                        <circle id="Oval" fill="#D4D6E5" fill-rule="nonzero" cx="11.6826923" cy="8.22115385" r="3.02884615"></circle>
                        <circle id="Oval-Copy" fill="#D4D6E5" fill-rule="nonzero" cx="22.0673077" cy="8.22115385" r="3.02884615"></circle>
                        <circle id="Oval-Copy-2" fill="#D4D6E5" fill-rule="nonzero" cx="32.4519231" cy="8.22115385" r="3.02884615"></circle>
                    </g>
                </g>
            </g>
        </g>
    </g>
</svg>