<?xml version="1.0" encoding="UTF-8"?>
<svg width="17px" height="17px" viewBox="0 0 17 17" version="1.1" xmlns="http://www.w3.org/2000/svg" xmlns:xlink="http://www.w3.org/1999/xlink">
    <!-- Generator: Sketch 51.1 (57501) - http://www.bohemiancoding.com/sketch -->
    <title>cancel</title>
    <desc>Created with Sketch.</desc>
    <defs></defs>
    <g id="Page-1" stroke="none" stroke-width="1" fill="none" fill-rule="evenodd">
        <g id="Day-626-Pop-Up-UI-Design" transform="translate(-1055.000000, -349.000000)" fill="#242246" fill-rule="nonzero">
            <g id="Group-4" transform="translate(185.000000, 120.000000)">
                <g id="cancel" transform="translate(870.000000, 229.000000)">
                    <path d="M9.35335012,8.2826685 L15.9541948,1.6818238 C16.2498755,1.38614309 16.2498755,0.906797235 15.9541948,0.611116529 C15.6585141,0.315435823 15.1791683,0.315435823 14.8834876,0.611116529 L8.28264286,7.21196123 L1.68179815,0.612125678 C1.38611745,0.316444972 0.906771593,0.316444972 0.611090887,0.612125678 C0.315410181,0.907806384 0.315410181,1.38715224 0.611090887,1.68283294 L7.21193559,8.28367765 L0.612100036,14.8835132 C0.31641933,15.1791939 0.31641933,15.6585398 0.612100036,15.9542205 C0.760444963,16.1015562 0.953192454,16.1762333 1.14694909,16.1762333 C1.34070573,16.1762333 1.53446237,16.1025654 1.68179815,15.9542205 L8.28264286,9.35337577 L14.8834876,15.9542205 C15.0318325,16.1015562 15.22458,16.1762333 15.4183366,16.1762333 C15.6120933,16.1762333 15.8058499,16.1025654 15.9531857,15.9542205 C16.2488664,15.6585398 16.2488664,15.1791939 15.9531857,14.8835132 L9.35335012,8.2826685 Z" id="Shape"></path>
                </g>
            </g>
        </g>
    </g>
</svg>