<?xml version="1.0" encoding="UTF-8"?>
<svg width="12px" height="11px" viewBox="0 0 12 11" version="1.1" xmlns="http://www.w3.org/2000/svg" xmlns:xlink="http://www.w3.org/1999/xlink">
    <!-- Generator: sketchtool 51.3 (57544) - http://www.bohemiancoding.com/sketch -->
    <title>0A4A1A62-8A58-43B0-9D28-A037410889E6</title>
    <desc>Created with sketchtool.</desc>
    <defs></defs>
    <g id="Page-1" stroke="none" stroke-width="1" fill="none" fill-rule="evenodd">
        <g id="Options-1024px" transform="translate(-910.000000, -130.000000)" fill="#28294B" fill-rule="nonzero">
            <g id="Group-5" transform="translate(910.000000, 65.000000)">
                <g id="logout-icon" transform="translate(6.000000, 70.400000) scale(-1, 1) translate(-6.000000, -70.400000) translate(0.000000, 65.000000)">
                    <path d="M1.91450467,5.60751402 L8.41114019,5.60751402 C8.72082243,5.60751402 8.97188785,5.3564486 8.97188785,5.04676636 C8.97188785,4.73708411 8.72082243,4.48601869 8.41114019,4.48601869 L1.91450467,4.48601869 L2.63951402,3.76100935 C2.85850467,3.54201869 2.85850467,3.18699065 2.63951402,2.968 C2.42056075,2.74900935 2.06549533,2.74900935 1.84650467,2.968 L0.164336449,4.65020561 C0.151214953,4.6633271 0.138803738,4.67708411 0.127065421,4.69143925 C0.121943925,4.69768224 0.117495327,4.70429907 0.112672897,4.71069159 C0.106504673,4.71891589 0.100149533,4.72695327 0.0944299065,4.73551402 C0.0891962617,4.7433271 0.0846728972,4.75143925 0.0798878505,4.75943925 C0.0752897196,4.76714019 0.0704672897,4.77465421 0.0662429907,4.78257944 C0.0618317757,4.79080374 0.0581308411,4.79925234 0.0541682243,4.80762617 C0.0502803738,4.81581308 0.0462056075,4.82388785 0.042728972,4.83226168 C0.039364486,4.8404486 0.0365981308,4.84878505 0.0336448598,4.85708411 C0.0303925234,4.86605607 0.026953271,4.87491589 0.0241869159,4.88407477 C0.021682243,4.89237383 0.0198504673,4.90078505 0.0177570093,4.90919626 C0.0154018692,4.91850467 0.0127850467,4.9277757 0.0109158879,4.93727103 C0.00900934579,4.94695327 0.00785046729,4.95674766 0.00646728972,4.96650467 C0.00527102804,4.97484112 0.0036635514,4.98306542 0.0028411215,4.99151402 C0.00104672897,5.00960748 0.000112149533,5.02781308 7.47663551e-05,5.04598131 C7.47663551e-05,5.04624299 3.73831776e-05,5.04654206 3.73831776e-05,5.04680374 C3.73831776e-05,5.04706542 7.47663551e-05,5.04736449 7.47663551e-05,5.04762617 C0.000112149533,5.06583178 0.00104672897,5.084 0.0028411215,5.10213084 C0.0036635514,5.11046729 0.00523364486,5.11857944 0.00639252336,5.12684112 C0.00781308411,5.13671028 0.00897196262,5.14657944 0.0109158879,5.15637383 C0.0127850467,5.16579439 0.015364486,5.17491589 0.0177196262,5.18414953 C0.0198504673,5.19263551 0.0217196262,5.20119626 0.0242616822,5.20960748 C0.0269906542,5.21861682 0.0303925234,5.2273271 0.0335327103,5.23614953 C0.0365607477,5.24459813 0.0393271028,5.25308411 0.0427663551,5.26138318 C0.0461682243,5.26960748 0.0501682243,5.27749533 0.0539813084,5.28553271 C0.0580186916,5.29409346 0.0618317757,5.30272897 0.066317757,5.31114019 C0.0704299065,5.31880374 0.0751028037,5.32609346 0.0795514019,5.33353271 C0.0844485981,5.34179439 0.0891214953,5.35013084 0.0945046729,5.35816822 C0.0999626168,5.36635514 0.106056075,5.37401869 0.111925234,5.38190654 C0.117009346,5.3886729 0.121719626,5.39566355 0.127140187,5.40224299 C0.138317757,5.41585047 0.150168224,5.4288972 0.162542056,5.44142056 C0.163140187,5.44201869 0.163626168,5.44269159 0.164224299,5.44328972 L1.84646729,7.12557009 C1.956,7.23506542 2.09947664,7.28983178 2.24299065,7.28983178 C2.38646729,7.28979439 2.53001869,7.23506542 2.63947664,7.12560748 C2.85846729,6.90661682 2.85846729,6.55158879 2.63951402,6.33259813 L1.91450467,5.60751402 Z" id="XMLID_7_"></path>
                    <path d="M11.4019439,0 L4.29914019,0 C3.98945794,0 3.73839252,0.251065421 3.73839252,0.560747664 L3.73839252,2.80373832 C3.73839252,3.11342056 3.98945794,3.36448598 4.29914019,3.36448598 C4.60882243,3.36448598 4.85988785,3.11342056 4.85988785,2.80373832 L4.85988785,1.12149533 L10.8411963,1.12149533 L10.8411963,8.972 L4.85988785,8.972 L4.85988785,7.28971963 C4.85988785,6.98003738 4.60882243,6.72897196 4.29914019,6.72897196 C3.98945794,6.72897196 3.73839252,6.98003738 3.73839252,7.28971963 L3.73839252,9.53274766 C3.73839252,9.84242991 3.98945794,10.0934953 4.29914019,10.0934953 L11.4019439,10.0934953 C11.7116262,10.0934953 11.9626916,9.84242991 11.9626916,9.53274766 L11.9626916,0.560747664 C11.9626916,0.251065421 11.7116262,0 11.4019439,0 Z" id="XMLID_8_"></path>
                </g>
            </g>
        </g>
    </g>
</svg>